<svg xmlns="http://www.w3.org/2000/svg" viewBox="0 0 32 32"><title>apple food menu drink fruit beverage</title><g id="apple_food_menu_drink_fruit_beverage" data-name="apple food menu drink fruit beverage"><path d="M19,7a11.814,11.814,0,0,0-1.868.169A3,3,0,0,1,20,5a1,1,0,0,0,0-2,4.969,4.969,0,0,0-3.792,1.779A7,7,0,0,0,10,1,1,1,0,0,0,9,2a6.972,6.972,0,0,0,2.265,5.14A11.991,11.991,0,1,0,16,30.611,12,12,0,1,0,19,7Zm0,21a1,1,0,0,1,0-2,7.008,7.008,0,0,0,7-7,1,1,0,0,1,2,0A9.011,9.011,0,0,1,19,28Z"/></g></svg>