<svg xmlns="http://www.w3.org/2000/svg" viewBox="0 0 32 32"><title>barbeque food menu drink fruit beverage</title><g id="barbeque_food_menu_drink_fruit_beverage" data-name="barbeque food menu drink fruit beverage"><path d="M30.707,10.325,26.9,6.516l1.1-1.1A1,1,0,1,0,26.583,4l-1.1,1.1L21.675,1.293a1,1,0,0,0-1.414,0L16.648,4.906a1,1,0,0,0,0,1.414l3.809,3.809-1.3,1.3L15.352,7.616a1,1,0,0,0-1.414,0l-3.613,3.613a1,1,0,0,0,0,1.414l3.809,3.809-1.371,1.371a4.829,4.829,0,0,0-6.682,6.682L1.293,29.293a1,1,0,0,0,1.414,1.414L7.5,25.919a4.829,4.829,0,0,0,6.682-6.682l1.371-1.371,3.809,3.809a1,1,0,0,0,1.414,0l3.613-3.613a1,1,0,0,0,0-1.414l-3.809-3.809,1.3-1.3,3.809,3.809a1,1,0,0,0,1.414,0l3.613-3.613A1,1,0,0,0,30.707,10.325Z"/></g></svg>