<svg xmlns="http://www.w3.org/2000/svg" viewBox="0 0 32 32"><title>burger food menu drink fruit beverage</title><g id="burger_food_menu_drink_fruit_beverage" data-name="burger food menu drink fruit beverage"><path d="M3,13H29a1,1,0,0,0,1-1,8.009,8.009,0,0,0-8-8H10a8.009,8.009,0,0,0-8,8A1,1,0,0,0,3,13Z"/><path d="M27,15H19.242l-5.121,5.121a3,3,0,0,1-4.242,0l-5.1-5.1A3.992,3.992,0,0,0,5,23H27a4,4,0,0,0,0-8Z"/><path d="M12.707,18.707,16.414,15H7.586l3.707,3.707A1,1,0,0,0,12.707,18.707Z"/><path d="M9,28H23a6,6,0,0,0,5.185-3H3.815A6,6,0,0,0,9,28Z"/></g></svg>