<svg xmlns="http://www.w3.org/2000/svg" viewBox="0 0 32 32"><title>cake food menu drink fruit beverage</title><g id="cake_food_menu_drink_fruit_beverage" data-name="cake food menu drink fruit beverage"><path d="M30,19H2a1,1,0,0,0-1,1V30a1,1,0,0,0,1,1H30a1,1,0,0,0,1-1V20A1,1,0,0,0,30,19Zm-6,6a4.982,4.982,0,0,1-4-2.031,4.954,4.954,0,0,1-8,0A4.983,4.983,0,0,1,3.1,21H28.9A5.009,5.009,0,0,1,24,25Z"/><path d="M27,10a1,1,0,0,0-1-1H23V4a1,1,0,0,0-1-1H21V2a1,1,0,0,0-2,0V3H18a1,1,0,0,0-1,1V9H15V4a1,1,0,0,0-1-1H13V2a1,1,0,0,0-2,0V3H10A1,1,0,0,0,9,4V9H6a1,1,0,0,0-1,1v7H27Zm-7,5a4.982,4.982,0,0,1-4-2.031A4.983,4.983,0,0,1,7.1,11H24.9A5.009,5.009,0,0,1,20,15Z"/></g></svg>