<svg xmlns="http://www.w3.org/2000/svg" viewBox="0 0 32 32"><title>candy food menu drink fruit beverage</title><g id="candy_food_menu_drink_fruit_beverage" data-name="candy food menu drink fruit beverage"><path d="M29.445,11.168l-4.72,3.147c-.025-.078-.049-.157-.077-.234-.007-.018-.012-.037-.018-.055C23.412,10.813,19.662,9,16,9c-4.214,0-7.751,2.268-8.725,5.315l-4.72-3.147A1,1,0,0,0,1,12v8a1,1,0,0,0,1.555.832l4.72-3.147C8.366,21.092,12.261,23,16,23c4.214,0,7.751-2.268,8.725-5.315l4.72,3.147A1,1,0,0,0,31,20V12A1,1,0,0,0,29.445,11.168ZM14.974,20.94A7.34,7.34,0,0,1,9.789,18.3l7.237-7.237A7.34,7.34,0,0,1,22.211,13.7Z"/></g></svg>