<svg xmlns="http://www.w3.org/2000/svg" viewBox="0 0 32 32"><title>carrot food menu drink fruit beverage</title><g id="carrot_food_menu_drink_fruit_beverage" data-name="carrot food menu drink fruit beverage"><path d="M21.339,7.45a7,7,0,0,0-4.18-2.344A3.022,3.022,0,0,1,20.038,3a1,1,0,1,0,0-2A5.053,5.053,0,0,0,16,3.031,5.053,5.053,0,0,0,11.952,1a1,1,0,1,0,0,2,3.022,3.022,0,0,1,2.879,2.106,7,7,0,0,0-4.18,2.344A6.872,6.872,0,0,0,9,12h4.637a1,1,0,1,1,0,2H9.242l1.011,6h4.395a1,1,0,1,1,0,2H10.59l.877,5.2a4.6,4.6,0,0,0,9.056,0l.2-1.206h-3.72a1,1,0,1,1,0-2h4.057l1.011-6H18.016a1,1,0,1,1,0-2h4.4l.493-2.931A6.865,6.865,0,0,0,21.339,7.45Z"/></g></svg>