<svg xmlns="http://www.w3.org/2000/svg" viewBox="0 0 32 32"><title>cheese food menu drink fruit beverage</title><g id="cheese_food_menu_drink_fruit_beverage" data-name="cheese food menu drink fruit beverage"><path d="M2,15H30a1,1,0,0,0,.707-1.707l-10-10a1,1,0,0,0-1.192-.167l-18,10A1,1,0,0,0,2,15Z"/><path d="M1,17V28a1,1,0,0,0,1,1H30a1,1,0,0,0,1-1V17ZM6,27a1,1,0,1,1,1-1A1,1,0,0,1,6,27Zm0-6a1,1,0,1,1,1-1A1,1,0,0,1,6,21Zm4,3a1,1,0,1,1,1-1A1,1,0,0,1,10,24Zm4,3a1,1,0,1,1,1-1A1,1,0,0,1,14,27Zm0-6a1,1,0,1,1,1-1A1,1,0,0,1,14,21Zm4,3a1,1,0,1,1,1-1A1,1,0,0,1,18,24Zm4,3a1,1,0,1,1,1-1A1,1,0,0,1,22,27Zm0-6a1,1,0,1,1,1-1A1,1,0,0,1,22,21Zm4,3a1,1,0,1,1,1-1A1,1,0,0,1,26,24Z"/></g></svg>