<svg xmlns="http://www.w3.org/2000/svg" viewBox="0 0 32 32"><title>cherry food menu drink fruit beverage</title><g id="cherry_food_menu_drink_fruit_beverage" data-name="cherry food menu drink fruit beverage"><path d="M24,17a6.95,6.95,0,0,0-2.476.461c-2.707-2.587-3.9-6.673-4.331-8.57A7.006,7.006,0,0,0,23,2a1,1,0,0,0-1-1,7,7,0,0,0-6,3.413A7,7,0,0,0,10,1,1,1,0,0,0,9,2a7.005,7.005,0,0,0,5.808,6.891c-.425,1.9-1.617,5.977-4.332,8.57a7.018,7.018,0,1,0,1.813,1.019A17.98,17.98,0,0,0,16,12.014a17.98,17.98,0,0,0,3.711,6.466A6.988,6.988,0,1,0,24,17Z"/></g></svg>