<svg xmlns="http://www.w3.org/2000/svg" viewBox="0 0 32 32"><title>chilli food menu drink fruit beverage</title><g id="chilli_food_menu_drink_fruit_beverage" data-name="chilli food menu drink fruit beverage"><path d="M21.364,7.481A7.021,7.021,0,0,0,17.137,5.1,3,3,0,0,1,19.994,3a1,1,0,1,0,0-2,5,5,0,0,0-4.013,2.031A5,5,0,0,0,11.969,1a1,1,0,1,0,0,2,3,3,0,0,1,2.857,2.1A7.017,7.017,0,0,0,10.6,7.482a7.4,7.4,0,0,0-1.516,5.74l3.762-3a1.007,1.007,0,0,1,1.254,0l1.879,1.5,1.884-1.5a1,1,0,0,1,1.252,0l3.768,3A6.884,6.884,0,0,0,21.364,7.481Z"/><path d="M16.6,13.781a1,1,0,0,1-1.249,0l-1.873-1.5-3.995,3.2,1.978,11.728a4.589,4.589,0,0,0,9.039,0l1.978-11.731-4-3.2Z"/></g></svg>