<svg xmlns="http://www.w3.org/2000/svg" viewBox="0 0 32 32"><title>citrus food menu drink fruit beverage</title><g id="citrus_food_menu_drink_fruit_beverage" data-name="citrus food menu drink fruit beverage"><path d="M12.556,7.685A2.98,2.98,0,0,0,10.88,9.466l3.82,3.82a2.608,2.608,0,0,0,.3-.124V7.76A2.98,2.98,0,0,0,12.556,7.685Z"/><path d="M13.161,17H7.76a2.976,2.976,0,0,0,1.706,4.119L13.285,17.3A2.352,2.352,0,0,0,13.161,17Z"/><path d="M13.161,15a2.19,2.19,0,0,0,.124-.3L9.466,10.881A2.976,2.976,0,0,0,7.76,15Z"/><path d="M17.3,13.286l3.82-3.82A2.977,2.977,0,0,0,17,7.76v5.4A2.729,2.729,0,0,0,17.3,13.286Z"/><path d="M22.534,10.881,18.715,14.7a2.352,2.352,0,0,0,.124.3h5.4a2.976,2.976,0,0,0-1.706-4.119Z"/><path d="M16,1A15,15,0,1,0,31,16,15.017,15.017,0,0,0,16,1ZM26.163,20.209h0a4.961,4.961,0,0,1-3.11,2.843A4.965,4.965,0,0,1,16,25.968a4.965,4.965,0,0,1-7.053-2.916,4.961,4.961,0,0,1-3.11-2.843h0A4.968,4.968,0,0,1,6.026,16a4.968,4.968,0,0,1-.189-4.209h0a4.961,4.961,0,0,1,3.11-2.843A4.972,4.972,0,0,1,16,6.026a4.972,4.972,0,0,1,7.053,2.922,4.961,4.961,0,0,1,3.11,2.843h0A4.968,4.968,0,0,1,25.974,16,4.968,4.968,0,0,1,26.163,20.209Z"/><path d="M18.839,17a2.19,2.19,0,0,0-.124.3l3.819,3.819A2.976,2.976,0,0,0,24.24,17Z"/><path d="M14.7,18.714l-3.82,3.82A2.977,2.977,0,0,0,15,24.24v-5.4A2.729,2.729,0,0,0,14.7,18.714Z"/><path d="M17,18.838v5.4a2.977,2.977,0,0,0,4.12-1.706l-3.82-3.82A2.608,2.608,0,0,0,17,18.838Z"/></g></svg>