<svg xmlns="http://www.w3.org/2000/svg" viewBox="0 0 32 32"><title>cookie food menu drink fruit beverage</title><g id="cookie_food_menu_drink_fruit_beverage" data-name="cookie food menu drink fruit beverage"><path d="M16,1A14.869,14.869,0,0,0,9.852,2.328a1,1,0,0,0-.245,1.666A3.981,3.981,0,1,1,3.994,9.606a1,1,0,0,0-1.667.245A14.866,14.866,0,0,0,1,16,15,15,0,1,0,16,1ZM7,17a1,1,0,1,1,1-1A1,1,0,0,1,7,17Zm3.343,6.071a1,1,0,1,1,0-1.414A1,1,0,0,1,10.343,23.071ZM16,26a1,1,0,1,1,1-1A1,1,0,0,1,16,26Zm0-9a1,1,0,1,1,1-1A1,1,0,0,1,16,17Zm0-9a1,1,0,1,1,1-1A1,1,0,0,1,16,8Zm7.071,15.071a1,1,0,1,1,0-1.414A1,1,0,0,1,23.071,23.071Zm0-12.728a1,1,0,1,1,0-1.414A1,1,0,0,1,23.071,10.343ZM25,17a1,1,0,1,1,1-1A1,1,0,0,1,25,17Z"/></g></svg>