<svg xmlns="http://www.w3.org/2000/svg" viewBox="0 0 32 32"><title>croissant food menu drink fruit beverage</title><g id="croissant_food_menu_drink_fruit_beverage" data-name="croissant food menu drink fruit beverage"><path d="M25.689,9.5a15.148,15.148,0,0,0-19.378,0,1,1,0,0,0-.32,1.046l3.139,10.8a1,1,0,0,0,1.378.63,13.213,13.213,0,0,1,10.984,0,1,1,0,0,0,1.378-.63l3.139-10.8A1,1,0,0,0,25.689,9.5Z"/><path d="M1,23.522a2.435,2.435,0,0,0,4.452,1.4,13.368,13.368,0,0,1,1.977-2.258L4.7,13.269A15.842,15.842,0,0,0,1,23.522Z"/><path d="M27.3,13.269l-2.731,9.4a13.368,13.368,0,0,1,1.977,2.258A2.435,2.435,0,0,0,31,23.522,15.842,15.842,0,0,0,27.3,13.269Z"/></g></svg>