<?xml version="1.0" encoding="UTF-8"?>
<svg xmlns="http://www.w3.org/2000/svg" version="1.1" viewBox="0 0 410.9 410.9">
  <defs>
    <style>
      .cls-1 {
        fill: #fff;
        stroke: #fff;
        stroke-miterlimit: 10;
      }
    </style>
  </defs>
  <!-- Generator: Adobe Illustrator 28.7.2, SVG Export Plug-In . SVG Version: 1.2.0 Build 154)  -->
  <g>
    <g id="Layer_2">
      <g id="objects">
        <g>
          <path class="cls-1" d="M264.3,190.1l-3.3,26.6c-.6,4.4-4.3,7.8-8.8,7.8h-43.1v111.1c-4.5.4-9.1.6-13.8.6-10.4,0-20.6-1-30.4-3v-108.7h-33.1c-3,0-5.5-2.5-5.5-5.5v-33.3c0-3.1,2.5-5.5,5.5-5.5h33.1v-49.9c0-30.6,24.7-55.4,55.2-55.4h38.6c3,0,5.5,2.5,5.5,5.5v33.3c0,3.1-2.5,5.5-5.5,5.5h-27.6c-12.2,0-22.1,9.9-22.1,22.2v38.8h46.4c5.3,0,9.4,4.7,8.8,10h0Z"/>
          <path class="cls-1" d="M362.8.5H48.2C21.8.5.5,21.8.5,48.2v314.6c0,26.3,21.3,47.6,47.7,47.6h314.6c26.3,0,47.6-21.3,47.6-47.6V48.2c0-26.3-21.3-47.7-47.6-47.7ZM391.4,362.8c0,15.8-12.8,28.6-28.6,28.6H48.2c-15.8,0-28.6-12.8-28.6-28.6V48.2c0-15.8,12.8-28.6,28.6-28.6h314.6c15.8,0,28.6,12.8,28.6,28.6v314.6Z"/>
        </g>
      </g>
    </g>
  </g>
</svg>