<svg xmlns="http://www.w3.org/2000/svg" viewBox="0 0 32 32"><title>french fries food menu drink fruit beverage</title><g id="french_fries_food_menu_drink_fruit_beverage" data-name="french fries food menu drink fruit beverage"><path d="M27,7H25V4a1,1,0,0,0-1-1H21V2a1,1,0,0,0-1-1H16a1,1,0,0,0-1,1V3H13V2a1,1,0,0,0-1-1H8A1,1,0,0,0,7,2V7H5a1,1,0,0,0-.984,1.179l4,22A1,1,0,0,0,9,31H23a1,1,0,0,0,.984-.821l4-22A1,1,0,0,0,27,7ZM17,3h2V7H17ZM13,5h2V7H13ZM9,3h2V7H9Zm7,21a6,6,0,1,1,6-6A6.006,6.006,0,0,1,16,24ZM23,7H21V5h2Z"/></g></svg>