<svg xmlns="http://www.w3.org/2000/svg" viewBox="0 0 32 32"><title>garlic food menu drink fruit beverage</title><g id="garlic_food_menu_drink_fruit_beverage" data-name="garlic food menu drink fruit beverage"><path d="M22.667,7.456A7.143,7.143,0,0,1,20,2a1,1,0,0,0-1-1H13a1,1,0,0,0-1,1A7.143,7.143,0,0,1,9.333,7.456,12.316,12.316,0,0,0,5,17a12.163,12.163,0,0,0,6,10.675V30a1,1,0,0,0,2,0V28.535a10.1,10.1,0,0,0,2,.41V30a1,1,0,0,0,2,0V28.945a10.1,10.1,0,0,0,2-.41V30a1,1,0,0,0,2,0V27.675A12.163,12.163,0,0,0,27,17,12.316,12.316,0,0,0,22.667,7.456ZM11.421,23.193a1,1,0,0,1-1.227-.7A21.352,21.352,0,0,1,9.5,17a21.165,21.165,0,0,1,.637-5.248,1,1,0,1,1,1.937.5A19.19,19.19,0,0,0,11.5,17a19.3,19.3,0,0,0,.625,4.966A1,1,0,0,1,11.421,23.193ZM17,24a1,1,0,0,1-2,0V13a1,1,0,0,1,2,0Zm4.806-1.511a1,1,0,1,1-1.931-.523A19.3,19.3,0,0,0,20.5,17a19.19,19.19,0,0,0-.574-4.752,1,1,0,1,1,1.937-.5A21.165,21.165,0,0,1,22.5,17,21.352,21.352,0,0,1,21.806,22.489Z"/></g></svg>