<svg xmlns="http://www.w3.org/2000/svg" viewBox="0 0 32 32"><title>grape food menu drink fruit beverage</title><g id="grape_food_menu_drink_fruit_beverage" data-name="grape food menu drink fruit beverage"><circle cx="16.002" cy="26" r="5"/><path d="M16.994,19.079a5,5,0,1,0-7.458,4.244A6.985,6.985,0,0,1,16.994,19.079Z"/><path d="M12.994,12.079c0-.027.008-.052.008-.079a5,5,0,1,0-7.467,4.323A6.985,6.985,0,0,1,12.994,12.079Z"/><path d="M20,14a4.939,4.939,0,0,0-2.5.7,7.221,7.221,0,0,1,1.5,4.982,7.047,7.047,0,0,1,3.47,3.644A4.983,4.983,0,0,0,20,14Z"/><path d="M24,7a4.936,4.936,0,0,0-2.491.691,6.994,6.994,0,0,1,1.466,4.98,7.039,7.039,0,0,1,3.491,3.652A4.983,4.983,0,0,0,24,7Z"/><path d="M14.994,12.681c.012.006.023.014.036.02.151.074.878.5.97.564a6.907,6.907,0,0,1,5-1.186A5,5,0,0,0,17,7.1V6a3,3,0,0,1,3-3,1,1,0,0,0,0-2,5.006,5.006,0,0,0-5,5V7.118a5.157,5.157,0,0,0-1.494.574A7.278,7.278,0,0,1,14.994,12.681Z"/></g></svg>