<svg id="rice_food_menu_drink_fruit_beverage" data-name="rice food menu drink fruit beverage" xmlns="http://www.w3.org/2000/svg" viewBox="0 0 32 32"><title>hamburger food menu drink fruit beverage</title><path d="M30,12H2a1,1,0,0,0-1,1,15.017,15.017,0,0,0,9,13.739V30a1,1,0,0,0,1,1H21a1,1,0,0,0,1-1V26.739A15.017,15.017,0,0,0,31,13,1,1,0,0,0,30,12ZM20,29H12V27.442a14.616,14.616,0,0,0,8,0Z"/><path d="M16,1a12.009,12.009,0,0,0-11.6,9h23.21A12.009,12.009,0,0,0,16,1ZM10,8a1,1,0,1,1,1-1A1,1,0,0,1,10,8Zm3-3a1,1,0,1,1,1-1A1,1,0,0,1,13,5Zm3,3a1,1,0,1,1,1-1A1,1,0,0,1,16,8Zm3-3a1,1,0,1,1,1-1A1,1,0,0,1,19,5Zm3,3a1,1,0,1,1,1-1A1,1,0,0,1,22,8Z"/></svg>