<svg xmlns="http://www.w3.org/2000/svg" viewBox="0 0 32 32"><title>hotdog food menu drink fruit beverage</title><g id="hotdog_food_menu_drink_fruit_beverage" data-name="hotdog food menu drink fruit beverage"><path d="M16,1a6.006,6.006,0,0,0-6,6V25a6,6,0,0,0,12,0V7A6.006,6.006,0,0,0,16,1Zm2,12.993c0,2.377-2,2.683-2,4,0,1.352,2,1.592,2,4,0,2.4-2,2.672-2,4a1,1,0,0,1-2,0c0-2.381,2-2.681,2-4,0-1.352-2-1.591-2-4,0-2.376,2-2.682,2-4,0-1.345-2-1.59-2-4,0-2.378,2-2.68,2-4a1,1,0,0,1,2,0c0,2.376-2,2.681-2,4C16,11.341,18,11.587,18,13.993Z"/><path d="M5,10V22a4.989,4.989,0,0,0,3,4.56V5.44A4.989,4.989,0,0,0,5,10Z"/><path d="M27,10V22a4.989,4.989,0,0,1-3,4.56V5.44A4.989,4.989,0,0,1,27,10Z"/></g></svg>