<svg xmlns="http://www.w3.org/2000/svg" viewBox="0 0 32 32"><title>ice cream food menu drink fruit beverage</title><g id="ice_cream_food_menu_drink_fruit_beverage" data-name="ice cream food menu drink fruit beverage"><path d="M13,30a1,1,0,0,0,1,1h4a1,1,0,0,0,1-1V27H13Z"/><path d="M16,1a9.011,9.011,0,0,0-9,9v2H8a1,1,0,0,1,1,1,1,1,0,0,0,2,0,3,3,0,0,1,6,0,1,1,0,0,0,2,0,3,3,0,0,1,5.829-1H25V10A9.011,9.011,0,0,0,16,1Z"/><path d="M23,13a1,1,0,0,0-2,0,3,3,0,0,1-6,0,1,1,0,0,0-2,0,3,3,0,0,1-5.829,1H7V24a1,1,0,0,0,1,1H24a1,1,0,0,0,1-1V14H24A1,1,0,0,1,23,13Z"/></g></svg>