<?xml version="1.0" encoding="UTF-8"?>
<svg xmlns="http://www.w3.org/2000/svg" version="1.1" viewBox="0 0 410.9 410.9">
  <defs>
    <style>
      .cls-1 {
        fill: #fff;
        stroke: #044040;
        stroke-miterlimit: 10;
      }
    </style>
  </defs>
  <!-- Generator: Adobe Illustrator 28.7.2, SVG Export Plug-In . SVG Version: 1.2.0 Build 154)  -->
  <g>
    <g id="Layer_2">
      <g id="objects">
        <g>
          <path class="cls-1" d="M259.6,101.2h-107.8c-27.8,0-50.3,22.5-50.3,50.3v107.8c0,27.8,22.5,50.3,50.3,50.3h107.8c27.8,0,50.3-22.5,50.3-50.3v-107.8c0-27.8-22.5-50.3-50.3-50.3ZM291.9,255.8c0,19.8-16.1,35.9-35.9,35.9h-100.6c-19.8,0-35.9-16.1-35.9-35.9v-100.6c0-19.8,16.1-35.9,35.9-35.9h100.6c19.8,0,35.9,16.1,35.9,35.9v100.6Z"/>
          <path class="cls-1" d="M205.7,151.6c-29.8,0-53.9,24.1-53.9,53.9s24.1,53.9,53.9,53.9,53.9-24.1,53.9-53.9-24.1-53.9-53.9-53.9h0ZM205.7,241.4c-19.8,0-35.9-16.1-35.9-35.9s16.1-35.9,35.9-35.9,35.9,16.1,35.9,35.9-16.1,35.9-35.9,35.9Z"/>
          <path class="cls-1" d="M263.2,158.8c-5.9,0-10.8-4.8-10.8-10.8s4.8-10.8,10.8-10.8,10.8,4.8,10.8,10.8-4.8,10.8-10.8,10.8Z"/>
          <path class="cls-1" d="M362.8.5H48.2C21.8.5.5,21.8.5,48.2v314.6c0,26.3,21.3,47.6,47.7,47.6h314.6c26.3,0,47.6-21.3,47.6-47.6V48.2c0-26.3-21.3-47.7-47.6-47.7ZM391.4,362.8c0,15.8-12.8,28.6-28.6,28.6H48.2c-15.8,0-28.6-12.8-28.6-28.6V48.2c0-15.8,12.8-28.6,28.6-28.6h314.6c15.8,0,28.6,12.8,28.6,28.6v314.6Z"/>
        </g>
      </g>
    </g>
  </g>
</svg>