<svg xmlns="http://www.w3.org/2000/svg" viewBox="0 0 32 32"><title>lemon food menu drink fruit beverage</title><g id="lemon_food_menu_drink_fruit_beverage" data-name="lemon food menu drink fruit beverage"><path d="M30,8H27V9A11,11,0,0,1,5,9V8H2A1,1,0,0,0,1,9,15,15,0,0,0,31,9,1,1,0,0,0,30,8Z"/><path d="M14.586,8H7V9a8.947,8.947,0,0,0,1.547,5.039Z"/><path d="M15,17.941V10.414L9.856,15.558A8.959,8.959,0,0,0,15,17.941Z"/><path d="M25,9V8H17.414l6.039,6.039A8.947,8.947,0,0,0,25,9Z"/><path d="M17,10.414v7.527a8.959,8.959,0,0,0,5.144-2.383Z"/></g></svg>