<svg xmlns="http://www.w3.org/2000/svg" viewBox="0 0 32 32"><title>lollipop food menu drink fruit beverage</title><g id="lollipop_food_menu_drink_fruit_beverage" data-name="lollipop food menu drink fruit beverage"><path d="M16,1a10,10,0,0,0-2.214,19.757,10.191,10.191,0,0,0,4.435,0A10,10,0,0,0,16,1Zm1.555,16.829a7.165,7.165,0,0,1-3.1,0,7,7,0,1,1,3.1,0Z"/><path d="M16,6a5,5,0,0,0-1.112,9.878,5.155,5.155,0,0,0,2.232,0A5,5,0,0,0,16,6Zm.777,8.414a3.562,3.562,0,0,1-1.545,0,3.5,3.5,0,1,1,1.545,0Z"/><path d="M13,22.613V30a1,1,0,0,0,1,1h4a1,1,0,0,0,1-1V22.613A11.788,11.788,0,0,1,13,22.613Z"/></g></svg>