<svg xmlns="http://www.w3.org/2000/svg" viewBox="0 0 32 32"><title>mocktail food menu drink fruit beverage</title><g id="mocktail_food_menu_drink_fruit_beverage" data-name="mocktail food menu drink fruit beverage"><path d="M30.993,5.869A4.995,4.995,0,0,0,21.105,5H8.416l7.795,7.793A1,1,0,0,1,14.8,14.207L5.588,5H2a1,1,0,0,0-.707,1.707L15,20.414v5.172L11.3,29.293A1,1,0,0,0,12,31h8a1,1,0,0,0,.707-1.707L17,25.586V20.414L30.712,6.708l0,0A1.053,1.053,0,0,0,30.993,5.869Z"/><path d="M4.711,1.293A1,1,0,0,0,3.3,2.707L5.589,5H8.418Z"/></g></svg>