<svg xmlns="http://www.w3.org/2000/svg" viewBox="0 0 32 32"><title>mushroom food menu drink fruit beverage</title><g id="mushroom_food_menu_drink_fruit_beverage" data-name="mushroom food menu drink fruit beverage"><path d="M28,29H24.808L22.665,19H9.334L7.191,29H4a1,1,0,0,0,0,2H28a1,1,0,0,0,0-2Z"/><path d="M7.5,17h17.01a4,4,0,0,0,3.364-6.163C25.729,8.33,23.7,1,16,1,8.324,1,6.2,8.419,4.13,10.837A4,4,0,0,0,7.5,17ZM21,11a1,1,0,1,1-1,1A1,1,0,0,1,21,11ZM16,5a1,1,0,1,1-1,1A1,1,0,0,1,16,5Zm0,4a1,1,0,1,1-1,1A1,1,0,0,1,16,9Zm-5,2a1,1,0,1,1-1,1A1,1,0,0,1,11,11Z"/></g></svg>