<svg xmlns="http://www.w3.org/2000/svg" viewBox="0 0 32 32"><title>noodle food menu drink fruit beverage</title><g id="noodle_food_menu_drink_fruit_beverage" data-name="noodle food menu drink fruit beverage"><path d="M30,16H27.413l3.293-3.293a1,1,0,1,0-1.414-1.414l-3.513,3.514A11,11,0,0,0,4.052,16H2a1,1,0,0,0-.658,1.752L9,24.454V25a1,1,0,0,0,1,1H22a1,1,0,0,0,1-1v-.546l7.657-6.7A1,1,0,0,0,30,16ZM12.185,16a2.982,2.982,0,0,1,5.631,0ZM19.9,16a5,5,0,0,0-9.8,0H9.091a5.992,5.992,0,0,1,11.818,0Zm3.031,0A7.992,7.992,0,0,0,7.07,16H6.06a9,9,0,0,1,17.88,0Z"/></g></svg>