<svg xmlns="http://www.w3.org/2000/svg" viewBox="0 0 32 32"><title>paprika food menu drink fruit beverage</title><g id="paprika_food_menu_drink_fruit_beverage" data-name="paprika food menu drink fruit beverage"><path d="M17.14,5.141A2.994,2.994,0,0,1,20,3a1,1,0,0,0,0-2,5,5,0,0,0-4.907,4.085C11.05,5.8,8,11.211,8,18c0,7.29,3.514,13,8,13s8-5.71,8-13C24,11.343,21.066,6.017,17.14,5.141Z"/><path d="M23,5a5.175,5.175,0,0,0-1.593.257C24.206,7.857,26,12.485,26,18s-1.794,10.143-4.593,12.743A5.175,5.175,0,0,0,23,31c4.486,0,8-5.71,8-13S27.486,5,23,5Z"/><path d="M10.593,5.257A5.175,5.175,0,0,0,9,5C4.514,5,1,10.71,1,18S4.514,31,9,31a5.175,5.175,0,0,0,1.593-.257C7.794,28.143,6,23.515,6,18S7.794,7.857,10.593,5.257Z"/></g></svg>