<svg xmlns="http://www.w3.org/2000/svg" viewBox="0 0 32 32"><title>pear food menu drink fruit beverage</title><g id="pear_food_menu_drink_fruit_beverage" data-name="pear food menu drink fruit beverage"><path d="M22.987,12.447h0a7,7,0,0,0-5.512-7.3c-.106-.022-.212-.03-.319-.047A2.994,2.994,0,0,1,20,3a1,1,0,0,0,0-2,5,5,0,0,0-4.9,4.06,6.993,6.993,0,0,0-6.086,7.2c.2,5.373-2.77,6.712-1.829,11.534A9,9,0,0,0,25,22C25,18.122,22.69,17.076,22.987,12.447ZM16.005,28a1,1,0,0,1,0-2,4,4,0,0,0,4-4,1,1,0,1,1,2,0A6,6,0,0,1,16.005,28Z"/></g></svg>