<svg xmlns="http://www.w3.org/2000/svg" viewBox="0 0 32 32"><title>pizza food menu drink fruit beverage</title><g id="pizza_food_menu_drink_fruit_beverage" data-name="pizza food menu drink fruit beverage"><path d="M11.5,24c1.6,0,1.924-2,4.5-2s2.888,2,4.5,2c1.656,0,2.006-2.218,4.921-1.978l-8.5-20.408a1,1,0,0,0-1.846,0l-8.5,20.411C9.5,21.781,9.832,24,11.5,24ZM19,16a1,1,0,1,1-1,1A1,1,0,0,1,19,16Zm-3-6a1,1,0,1,1-1,1A1,1,0,0,1,16,10Zm-3,6a1,1,0,1,1-1,1A1,1,0,0,1,13,16Z"/><path d="M26.923,25.615l-.578-1.388C22.925,23.3,23.814,26,20.505,26c-2.574,0-2.889-2-4.5-2s-1.925,2-4.5,2c-3.328,0-2.432-2.71-5.845-1.779l-.581,1.394a1,1,0,0,0,.028.832C5.2,26.633,7.479,31,16,31s10.8-4.367,10.9-4.553A1,1,0,0,0,26.923,25.615Z"/></g></svg>