<svg xmlns="http://www.w3.org/2000/svg" viewBox="0 0 32 32"><title>rice food menu drink fruit beverage</title><g id="tortilla_food_menu_drink_fruit_beverage" data-name="tortilla food menu drink fruit beverage"><path d="M11.9,10.553a1.041,1.041,0,0,0-1.789,0l-9,18A1,1,0,0,0,2,30H20a1,1,0,0,0,.894-1.447ZM9,25a1,1,0,1,1,1-1A1,1,0,0,1,9,25Zm2-4a1,1,0,1,1,1-1A1,1,0,0,1,11,21Zm2,4a1,1,0,1,1,1-1A1,1,0,0,1,13,25Z"/><path d="M30,2H12a1,1,0,0,0-.894,1.447l9,18a1,1,0,0,0,1.789,0l9-18A1,1,0,0,0,30,2ZM19,9a1,1,0,1,1,1-1A1,1,0,0,1,19,9Zm2,4a1,1,0,1,1,1-1A1,1,0,0,1,21,13Zm2-4a1,1,0,1,1,1-1A1,1,0,0,1,23,9Z"/></g></svg>