<svg xmlns="http://www.w3.org/2000/svg" viewBox="0 0 32 32"><title>sausage food menu drink fruit beverage</title><g id="sausage_food_menu_drink_fruit_beverage" data-name="sausage food menu drink fruit beverage"><path d="M19.052,3.856l.8-1.341A1,1,0,0,0,19,1H13a1,1,0,0,0-.857,1.515l.8,1.341A5.982,5.982,0,0,0,10,9V23a5.982,5.982,0,0,0,2.948,5.144l-.8,1.341A1,1,0,0,0,13,31h6a1,1,0,0,0,.857-1.515l-.8-1.341A5.982,5.982,0,0,0,22,23V9A5.982,5.982,0,0,0,19.052,3.856ZM17.707,21.707l-2,2a1,1,0,0,1-1.414-1.414l2-2a1,1,0,0,1,1.414,1.414Zm0-6-2,2a1,1,0,0,1-1.414-1.414l2-2a1,1,0,0,1,1.414,1.414Zm0-6-2,2a1,1,0,0,1-1.414-1.414l2-2a1,1,0,0,1,1.414,1.414Z"/></g></svg>