<svg xmlns="http://www.w3.org/2000/svg" viewBox="0 0 32 32"><title>seashell food menu drink fruit beverage</title><g id="seashell_food_menu_drink_fruit_beverage" data-name="seashell food menu drink fruit beverage"><path d="M28.805,8.191l-7.2,5.569a1,1,0,0,1-1.222-1.586L27.66,6.545A14.964,14.964,0,0,0,17,1v9.966a1,1,0,1,1-2,0V1A14.874,14.874,0,0,0,4.33,6.54l7.283,5.634a1,1,0,0,1-1.222,1.586l-7.2-5.573A14.924,14.924,0,0,0,1,15.992a1,1,0,0,0,.383.787l14.012,11a1,1,0,0,0,1.236,0L30.619,16.747A1.008,1.008,0,0,0,31,15.959,14.93,14.93,0,0,0,28.805,8.191Z"/><path d="M14.162,29.36,7.5,24.127V30a1,1,0,0,0,1,1h15a1,1,0,0,0,1-1V24.125l-6.63,5.229A3,3,0,0,1,14.162,29.36Z"/></g></svg>