<svg xmlns="http://www.w3.org/2000/svg" viewBox="0 0 32 32"><title>shrimp food menu drink fruit beverage</title><g id="hamburger_food_menu_drink_fruit_beverage" data-name="hamburger food menu drink fruit beverage"><path d="M29,12a1,1,0,0,0,1-1,8.009,8.009,0,0,0-8-8H10a8.009,8.009,0,0,0-8,8,1,1,0,0,0,1,1H29Z"/><path d="M27,16H5a4,4,0,0,0,0,8H27a4,4,0,0,0,0-8Z"/><path d="M22.006,14c2.475,0,2.733,2,5.994,2a1,1,0,0,0,0-2c-2.475,0-2.733-2-5.994-2s-3.517,2-6,2-2.75-2-6-2-3.534,2-6,2a1,1,0,0,0,0,2c3.24,0,3.538-2,6-2s2.749,2,6,2S19.536,14,22.006,14Z"/><path d="M9,29H23a6,6,0,0,0,5.185-3H3.815A6,6,0,0,0,9,29Z"/></g></svg>