<svg xmlns="http://www.w3.org/2000/svg" viewBox="0 0 32 32"><title>strawberry food menu drink fruit beverage</title><g id="strawberry_food_menu_drink_fruit_beverage" data-name="strawberry food menu drink fruit beverage"><path d="M25.5,10.465a7.632,7.632,0,0,0-4.962-3.14A6.985,6.985,0,0,0,23,2a1,1,0,0,0-1-1,7,7,0,0,0-6,3.413A7,7,0,0,0,10,1,1,1,0,0,0,9,2a6.985,6.985,0,0,0,2.468,5.325,7.632,7.632,0,0,0-4.962,3.14,8.234,8.234,0,0,0-1.357,6.307C6.941,26.08,10.693,31,16,31s9.059-4.92,10.852-14.228A8.234,8.234,0,0,0,25.5,10.465ZM11,17a1,1,0,0,1-1-1V14a1,1,0,0,1,2,0v2A1,1,0,0,1,11,17Zm3,4a1,1,0,0,1-2,0V19a1,1,0,0,1,2,0Zm3,5a1,1,0,0,1-2,0V24a1,1,0,0,1,2,0Zm0-9a1,1,0,0,1-2,0V15a1,1,0,0,1,2,0Zm3,4a1,1,0,0,1-2,0V19a1,1,0,0,1,2,0Zm2-5a1,1,0,0,1-2,0V14a1,1,0,0,1,2,0Z"/></g></svg>