<svg xmlns="http://www.w3.org/2000/svg" viewBox="0 0 32 32"><title>taco food menu drink fruit beverage</title><g id="taco_food_menu_drink_fruit_beverage" data-name="taco food menu drink fruit beverage"><path d="M16,14a9.047,9.047,0,0,0-9,8.839V24H25V22.82A9.044,9.044,0,0,0,16,14Z"/><path d="M28.4,16.267a3.954,3.954,0,0,0-.914-2.909,4.006,4.006,0,0,0-3-1.42,3.975,3.975,0,0,0-5.469-2.555,3.982,3.982,0,0,0-6.034,0,3.973,3.973,0,0,0-5.469,2.555A3.977,3.977,0,0,0,3.6,16.267,3.992,3.992,0,0,0,5,24V22.82A11,11,0,0,1,27,22.8V24a3.992,3.992,0,0,0,1.4-7.733Z"/></g></svg>