<svg xmlns="http://www.w3.org/2000/svg" viewBox="0 0 32 32"><title>takoyaki food menu drink fruit beverage</title><g id="takoyaki_food_menu_drink_fruit_beverage" data-name="takoyaki food menu drink fruit beverage"><path d="M28.781,3.221a7.583,7.583,0,0,0-8.909-1.343c2.57,1.885.722,4.33,1.767,5.375,1.017,1.018,3.093-.63,4.968,1.243s.287,3.841,1.152,4.868a2.887,2.887,0,0,0,.932.665A7.583,7.583,0,0,0,28.781,3.221Z"/><path d="M26.228,14.652c-1.533-1.824-.064-3.772-1.035-4.742-1.007-1.007-3.108.617-4.968-1.243-2.2-2.2.482-4.146-2.093-5.515a7.543,7.543,0,0,0-2.025,7.432,7.631,7.631,0,0,0-2-.273,7.545,7.545,0,0,0-3.521.866c2.523,1.848.726,4.373,1.741,5.388.995.993,3.111-.615,4.969,1.243,2.177,2.176-.448,4.2,2.082,5.534A7.565,7.565,0,0,0,21.414,15.9a7.545,7.545,0,0,0,5.517-.588A4.075,4.075,0,0,1,26.228,14.652Z"/><path d="M15.881,19.222c-1.022-1.019-3.087.636-4.969-1.243-2.2-2.2.472-4.184-2.083-5.524A7.553,7.553,0,0,0,8.088,22.5L1.293,29.293a1,1,0,0,0,1.414,1.414l6.8-6.794a7.568,7.568,0,0,0,8.141.694C15.107,22.745,16.9,20.238,15.881,19.222Z"/></g></svg>