<?xml version="1.0" encoding="UTF-8"?>
<svg xmlns="http://www.w3.org/2000/svg" version="1.1" viewBox="0 0 410.9 410.9">
  <defs>
    <style>
      .cls-1 {
        fill: #fff;
        stroke: #fff;
        stroke-miterlimit: 10;
      }
    </style>
  </defs>
  <!-- Generator: Adobe Illustrator 28.7.2, SVG Export Plug-In . SVG Version: 1.2.0 Build 154)  -->
  <g>
    <g id="Layer_2">
      <g id="objects">
        <g>
          <path class="cls-1" d="M362.8.5H48.2C21.8.5.5,21.8.5,48.2v314.6c0,26.3,21.3,47.6,47.7,47.6h314.6c26.3,0,47.6-21.3,47.6-47.6V48.2c0-26.3-21.3-47.7-47.6-47.7ZM391.4,362.8c0,15.8-12.8,28.6-28.6,28.6H48.2c-15.8,0-28.6-12.8-28.6-28.6V48.2c0-15.8,12.8-28.6,28.6-28.6h314.6c15.8,0,28.6,12.8,28.6,28.6v314.6Z"/>
          <path class="cls-1" d="M234.1,187.2l80.4-86h-30.5l-63.1,67.5-48.3-67.5h-83.5l84.5,118-84.5,90.4h30.5l67.2-71.9,51.5,71.9h83.5l-87.7-122.5h0ZM132.1,123.4h29.1l117.6,164.2h-29.1l-117.6-164.2Z"/>
        </g>
      </g>
    </g>
  </g>
</svg>